<?xml version="1.0" encoding="utf-8"?>
<!-- Generator: Adobe Illustrator 23.1.0, SVG Export Plug-In . SVG Version: 6.00 Build 0)  -->
<svg version="1.1" id="레이어_1" xmlns="http://www.w3.org/2000/svg" xmlns:xlink="http://www.w3.org/1999/xlink" x="0px"
	 y="0px" viewBox="0 0 40 40" style="enable-background:new 0 0 40 40;" xml:space="preserve">
<style type="text/css">
	.st0{fill:#3372FF;}
</style>
<path class="st0" d="M15.9,18.6c-4.9,0-8.9-4-8.9-8.9s4-8.9,8.9-8.9c4.9,0,8.9,4,8.9,8.9S20.8,18.6,15.9,18.6z M15.9,2.7
	c-3.9,0-7,3.1-7,7c0,3.9,3.1,7,7,7c3.9,0,7-3.1,7-7C22.9,5.8,19.8,2.7,15.9,2.7z"/>
<g>
	<path class="st0" d="M18.5,34.6H6.6c-2.7,0-4.4-0.7-5.2-2.2c-1-1.7-0.5-4.2,1.4-7.4c3.2-5.3,8-8.4,13.2-8.4c3.3,0,6.5,1.3,9.3,3.7
		c0.4,0.4,0.4,1,0.1,1.4c-0.4,0.4-1,0.4-1.4,0.1c-2.4-2.1-5.2-3.2-8-3.2c-4.5,0-8.7,2.7-11.5,7.4c-1.5,2.5-2,4.4-1.4,5.4
		c0.6,1,2.2,1.2,3.5,1.2h11.9c0.5,0,1,0.4,1,1C19.4,34.1,19,34.6,18.5,34.6z"/>
</g>
<path class="st0" d="M32.9,39.7h-5.2l-0.5-2.9l-2.8,1l-2.6-4.5l2.2-1.8l-2.2-1.8l2.6-4.5l2.8,1l0.5-2.9h5.2l0.5,2.9l2.8-1l2.6,4.5
	l-2.2,1.8l2.2,1.8l-2.6,4.5l-2.8-1L32.9,39.7z M29.3,37.8h1.9l0.4-2.2l1.5-0.9l2.1,0.8l0.9-1.7l-1.7-1.4v-1.7l1.7-1.4l-0.9-1.7
	l-2.1,0.8l-1.5-0.9l-0.4-2.2h-1.9L29,27.5l-0.5,0.2c-0.1,0.1-0.5,0.3-0.6,0.4l-0.4,0.3l-2.1-0.8l-0.9,1.7l1.8,1.5l0,0.5
	c0,0.1,0,0.2,0,0.3s0,0.2,0,0.3l0,0.5l-1.8,1.5l0.9,1.7l2.2-0.8l0.4,0.3c0.2,0.1,0.4,0.3,0.6,0.4l0.5,0.2L29.3,37.8z"/>
<path class="st0" d="M30.3,33.7L30.3,33.7c-1.2,0-2.2-1-2.2-2.2v0c0-1.2,1-2.2,2.2-2.2h0c1.2,0,2.2,1,2.2,2.2v0
	C32.5,32.7,31.5,33.7,30.3,33.7z"/>
</svg>
